<svg xmlns="http://www.w3.org/2000/svg" version="1.1" xmlns:xlink="http://www.w3.org/1999/xlink" xmlns:svgjs="http://svgjs.dev/svgjs" width="300px" height="300px"><svg version="1.1" id="SvgjsSvg1001" xmlns="http://www.w3.org/2000/svg" xmlns:xlink="http://www.w3.org/1999/xlink" x="0px" y="0px" width="300px" height="300px" viewBox="0 0 300 300" enable-background="new 0 0 300 300" xml:space="preserve">
<g>
	<g>
		<path fill="#E6E7E8" d="M252.577,52.854L39.701,110.857l-7.845-28.79c-0.785-2.883,0.915-5.856,3.797-6.641l202.437-55.159
			c2.883-0.785,5.856,0.915,6.641,3.797L252.577,52.854z"></path>
	</g>
	<g opacity="0.2">
		
			<rect x="34.915" y="75.095" transform="matrix(0.9648 -0.2629 0.2629 0.9648 -15.5381 40.9453)" fill="#4D5559" width="220.638" height="6.88"></rect>
	</g>
	<g>
		<g>
			<polygon fill="#4D5559" points="102.316,93.796 120.538,88.831 89.559,60.738 71.337,65.703 			"></polygon>
		</g>
		<g>
			<polygon fill="#4D5559" points="137.944,84.089 156.166,79.124 125.187,51.03 106.965,55.995 			"></polygon>
		</g>
		<g>
			<polygon fill="#4D5559" points="66.688,103.504 84.91,98.539 53.931,70.445 35.709,75.41 			"></polygon>
		</g>
		<g>
			<polygon fill="#4D5559" points="173.572,74.381 191.794,69.416 160.815,41.322 142.593,46.287 			"></polygon>
		</g>
		<g>
			<polygon fill="#4D5559" points="209.2,64.673 227.422,59.708 196.443,31.614 178.221,36.579 			"></polygon>
		</g>
		<g>
			<path fill="#4D5559" d="M244.828,54.966l7.749-2.111l-7.845-28.79c-0.785-2.883-3.759-4.583-6.641-3.797l-24.242,6.605
				L244.828,54.966z"></path>
		</g>
	</g>
	<g>
		<path fill="#E6E7E8" d="M260.335,146.107H39.698v-35.25h215.227c2.988,0,5.41,2.422,5.41,5.41V146.107z"></path>
	</g>
	<g>
		<path fill="#D1D3D4" d="M252.607,279.925H47.426c-4.268,0-7.728-3.46-7.728-7.728v-126.09h220.637v126.09
			C260.335,276.465,256.875,279.925,252.607,279.925z"></path>
	</g>
	<g>
		<path fill="#939598" d="M231.773,211.058h-45.472v-35.355h45.472c2.134,0,3.864-1.73,3.864-3.864s-1.73-3.864-3.864-3.864H68.26
			c-2.134,0-3.864,1.73-3.864,3.864s1.73,3.864,3.864,3.864h45.472v35.355H68.26c-2.134,0-3.864,1.73-3.864,3.864
			c0,2.134,1.73,3.864,3.864,3.864h163.514c2.134,0,3.864-1.73,3.864-3.864C235.638,212.788,233.908,211.058,231.773,211.058z
			 M121.46,175.703h57.114v35.355H121.46V175.703z"></path>
		<path fill="#939598" d="M231.773,230.907h-89.476c-2.134,0-3.864,1.73-3.864,3.864s1.73,3.864,3.864,3.864h89.476
			c2.134,0,3.864-1.73,3.864-3.864S233.908,230.907,231.773,230.907z"></path>
		<path fill="#939598" d="M127.33,230.907h-25.836c-2.134,0-3.864,1.73-3.864,3.864s1.73,3.864,3.864,3.864h25.836
			c2.134,0,3.864-1.73,3.864-3.864S129.464,230.907,127.33,230.907z"></path>
		<path fill="#939598" d="M231.773,250.944h-55.428c-2.134,0-3.864,1.73-3.864,3.864s1.73,3.864,3.864,3.864h55.428
			c2.134,0,3.864-1.73,3.864-3.864S233.908,250.944,231.773,250.944z"></path>
	</g>
	<g opacity="0.2">
		<rect x="39.698" y="146.107" fill="#4D5559" width="220.637" height="7.536"></rect>
	</g>
	<g>
		<path fill="#4D5559" d="M39.698,146.107v-43.921c0-2.792,2.263-5.055,5.055-5.055h5.883c3.068,0,5.912,1.61,7.49,4.242
			l26.831,44.734H39.698z"></path>
	</g>
	<g>
		<g>
			<circle fill="#D1D3D4" cx="49.78" cy="107.593" r="4.279"></circle>
		</g>
		<g>
			<circle fill="#D1D3D4" cx="49.78" cy="136.533" r="4.279"></circle>
		</g>
		<g>
			<circle fill="#D1D3D4" cx="66.607" cy="136.533" r="4.279"></circle>
		</g>
	</g>
	<g>
		<g>
			<polygon fill="#4D5559" points="104.596,146.107 123.482,146.107 100.979,110.857 82.092,110.857 			"></polygon>
		</g>
		<g>
			<polygon fill="#4D5559" points="141.523,146.107 160.409,146.107 137.906,110.857 119.019,110.857 			"></polygon>
		</g>
		<g>
			<polygon fill="#4D5559" points="178.45,146.107 197.336,146.107 174.833,110.857 155.946,110.857 			"></polygon>
		</g>
		<g>
			<polygon fill="#4D5559" points="215.377,146.107 234.263,146.107 211.759,110.857 192.873,110.857 			"></polygon>
		</g>
		<g>
			<path fill="#4D5559" d="M252.304,146.107h8.031v-29.84c0-2.988-2.422-5.41-5.41-5.41H229.8L252.304,146.107z"></path>
		</g>
	</g>
</g>
</svg><style>@media (prefers-color-scheme: light) { :root { filter: none; } }
@media (prefers-color-scheme: dark) { :root { filter: none; } }
</style></svg>